<svg xmlns="http://www.w3.org/2000/svg" viewBox="0 0 600 400" role="img" aria-labelledby="t">
  <title id="t">Bidón de aceite de motor y gota</title>
  <defs>
    <linearGradient id="bg" x1="0" y1="0" x2="1" y2="1"><stop offset="0" stop-color="#211b12"/><stop offset="1" stop-color="#3b3020"/></linearGradient>
    <linearGradient id="oil" x1="0" y1="0" x2="1" y2="0"><stop offset="0" stop-color="#d9860a"/><stop offset=".4" stop-color="#ffd05e"/><stop offset="1" stop-color="#d9860a"/></linearGradient>
    <linearGradient id="oil2" x1="0" y1="0" x2="1" y2="0"><stop offset="0" stop-color="#9a5a05"/><stop offset=".4" stop-color="#e79a1c"/><stop offset="1" stop-color="#9a5a05"/></linearGradient>
  </defs>
  <rect width="600" height="400" fill="url(#bg)"/>
  <circle cx="330" cy="210" r="170" fill="#ffb020" opacity=".08"/>

  <!-- bidón grande -->
  <path d="M400 168h32q26 0 26 26v52q0 26-26 26h-32" fill="none" stroke="#e79a1c" stroke-width="16" stroke-linecap="round"/>
  <rect x="196" y="126" width="216" height="200" rx="26" fill="url(#oil)"/>
  <rect x="264" y="92" width="80" height="40" rx="8" fill="url(#oil)"/>
  <rect x="272" y="66" width="64" height="30" rx="6" fill="#d92b20"/>
  <rect x="272" y="76" width="64" height="4" fill="#7a150c" opacity=".5"/>
  <rect x="216" y="184" width="176" height="96" rx="10" fill="#fff"/>
  <rect x="216" y="184" width="176" height="24" fill="#d92b20"/>
  <text x="304" y="252" text-anchor="middle" font-family="'Arial Black','Segoe UI Black',Impact,sans-serif" font-weight="900" font-size="38" fill="#14181f">5W-30</text>
  <text x="304" y="201" text-anchor="middle" font-family="'Segoe UI',Arial,sans-serif" font-weight="800" font-size="13" letter-spacing="4" fill="#fff">SINTÉTICO</text>

  <!-- botella chica -->
  <rect x="86" y="238" width="80" height="88" rx="14" fill="url(#oil2)"/>
  <rect x="106" y="214" width="40" height="28" rx="6" fill="url(#oil2)"/>
  <rect x="110" y="196" width="32" height="20" rx="4" fill="#14181f"/>
  <rect x="94" y="266" width="64" height="38" rx="5" fill="#fff"/>
  <rect x="94" y="266" width="64" height="10" fill="#2f5d8a"/>

  <!-- gota -->
  <path d="M500 96c22 34 38 58 38 80a38 38 0 0 1-76 0c0-22 16-46 38-80z" fill="url(#oil)"/>
  <path d="M482 172a20 20 0 0 0 14 22" fill="none" stroke="#fff" stroke-opacity=".6" stroke-width="5" stroke-linecap="round"/>
</svg>
